# xmcd
#
# Track frame offsets: 
#        150
#        17224
#        44394
#        58763
#        79517
#        96244
#        112227
#        135971
#        160217
#
# Disc length: 2462 seconds
#
# Revision: 0
# Processed by: cddbd v1.5.2PL0 Copyright (c) Steve Scherf et al.
# Submitted via: ExactAudioCopy v1.3
#
DISCID=71099c09
DTITLE=John Verity Band - Live At Bosky
DYEAR=2015
DGENRE=Blues Rock
TTITLE0=Nothings Changed
TTITLE1=Say Why
TTITLE2=I Just Wanna Make Love to You
TTITLE3=I Put a Spell On You
TTITLE4=The Blues Had a Baby
TTITLE5=Route 66
TTITLE6=Johnny B Goode
TTITLE7=While My Guitar Gently Weeps
TTITLE8=Help Me
EXTD=
EXTT0=
EXTT1=
EXTT2=
EXTT3=
EXTT4=
EXTT5=
EXTT6=
EXTT7=
EXTT8=
PLAYORDER=
